<?xml version="1.0" encoding="UTF-8"?>
<svg width="44px" height="36px" viewBox="0 0 44 36" version="1.1" xmlns="http://www.w3.org/2000/svg" xmlns:xlink="http://www.w3.org/1999/xlink">
    <title>AE12E627-748B-44F9-8919-59E48840BAF6@1x</title>
    <g id="1.-atoms" stroke="none" stroke-width="1" fill="none" fill-rule="evenodd">
        <g id="3.-icon-&amp;-illus" transform="translate(-654.000000, -658.000000)" fill-rule="nonzero">
            <g id="Group" transform="translate(644.000000, 644.000000)">
                <g id="thumbs-up" transform="translate(10.000000, 14.000000)">
                    <path d="M40.8335465,3.13086413 C44.9411245,7.30569007 44.9411245,14.0740769 40.8335465,18.2485623 C36.7256335,22.4230479 30.0660636,22.4230479 25.9581506,18.2485623 C21.8505726,14.0740769 21.8505726,7.30569007 25.9581506,3.13086413 C30.0660636,-1.04362135 36.7256335,-1.04362135 40.8335465,3.13086413 L40.8335465,3.13086413 Z" id="Path" fill="#00B96F"></path>
                    <path d="M40.8335465,3.13086413 C44.5869883,6.94544496 44.9099659,12.9255826 41.8034844,17.1136879 C37.6825049,20.2707703 31.7985502,19.9425318 28.0447733,16.127951 C24.2913316,12.3130296 23.9683541,6.33323245 27.0748355,2.14512712 C31.1958151,-1.01195521 37.0797697,-0.683716707 40.8335465,3.13086413 L40.8335465,3.13086413 Z" id="Path" fill="#54D680"></path>
                    <path d="M43.4612573,6.00499395 L34.9093872,14.6961637 C34.6075171,15.002951 34.211501,15.1565148 33.816155,15.1565148 C33.4204739,15.1565148 33.0247928,15.0032915 32.7229227,14.6961637 L28.4652473,10.3694764 C27.8615071,9.75556146 27.8615071,8.76063103 28.4652473,8.14705662 C29.0689876,7.53348212 30.0479715,7.53348212 30.6517118,8.14705662 L33.816155,11.3630448 L41.2751279,3.78291469 C41.8788682,3.16934019 42.8575171,3.16934019 43.4615923,3.78291469 C44.0653326,4.3964891 44.0653326,5.39141945 43.4612573,6.00499395 Z" id="Path" fill="#FFE49F"></path>
                    <path d="M43.4612573,3.78291469 C44.0653326,4.3964891 44.0653326,5.39107897 43.4615923,6.00465347 L36.1031311,13.4826347 C35.8012609,13.7894219 35.4055799,13.9429858 35.0098989,13.9429858 C34.6142178,13.9429858 34.2185368,13.7897624 33.9166667,13.4826347 L29.6589912,9.15560682 C29.2757066,8.76607897 29.1366654,8.22298733 29.2398574,7.72109564 C29.7337049,7.61622276 30.2680921,7.75752877 30.6513767,8.14705662 L33.81582,11.3630448 L41.2747928,3.78257413 C41.8785331,3.16899972 42.8575171,3.16899972 43.4612573,3.78291469 L43.4612573,3.78291469 Z" id="Path" fill="#FFF5F5"></path>
                    <path d="M34.9217836,22.0600787 C34.8453947,22.1016193 34.7981543,22.1823169 34.7981543,22.2701649 C34.7981543,22.358013 34.8453947,22.4390511 34.9217836,22.4802513 C35.4739279,22.7802285 35.8501767,23.3709898 35.8501767,24.0519825 L35.8501767,24.942721 C35.8501767,25.6233732 35.4739279,26.2144749 34.9217836,26.5141117 C34.8453947,26.5556523 34.7981543,26.6363499 34.7981543,26.724198 C34.7981543,26.812046 34.8453947,26.8930842 34.9217836,26.9342842 C35.4739279,27.2342615 35.8501767,27.8250227 35.8501767,28.5060155 L35.8501767,29.396754 C35.8501767,30.0774062 35.4739279,30.6685079 34.9217836,30.9681447 C34.8453947,31.0096852 34.7981543,31.0903828 34.7981543,31.178231 C34.7981543,31.266079 34.8453947,31.3471172 34.9217836,31.3883172 C35.4739279,31.6882945 35.8501767,32.2790557 35.8501767,32.9600484 L35.8501767,33.8507869 C35.8501767,34.8348214 35.0651803,35.6322639 34.0969176,35.6322639 L24.7355933,35.6322639 C23.4162098,35.6322639 22.1326754,35.1943855 21.080653,34.3853662 C20.0282956,33.5760063 18.7450962,33.138128 17.4253776,33.138128 L10.2555433,33.138128 L10.2555433,21.5575061 L16.4752072,21.5575061 C17.7279179,21.5575061 18.8851426,20.8785563 19.5116654,19.7760291 L22.4770955,14.5558792 C22.7079374,14.1493266 22.8292215,13.6886349 22.8292215,13.219431 L22.8292215,10.2441738 C22.8292215,9.50631812 23.417885,8.90806594 24.1442495,8.90806594 C25.8385416,8.90806594 27.2118665,10.3041011 27.2118665,12.0259912 L27.2118665,13.7049788 C27.2118665,14.6474727 26.9666179,15.5732824 26.5012488,16.3880902 L25.9145955,17.4146867 C25.8130787,17.5931068 25.9393884,17.816132 26.142087,17.816132 L34.0969176,17.816132 C35.0651803,17.816132 35.8501767,18.613915 35.8501767,19.5979494 L35.8501767,20.4886879 C35.8501767,21.1693402 35.4739279,21.7604419 34.9217836,22.0600787 L34.9217836,22.0600787 Z" id="Path" fill="#FFDFCF"></path>
                    <path d="M24.4551657,9.26456566 L24.4551657,11.0460427 C24.4551657,11.53806 24.062835,11.9367812 23.5787037,11.9367812 L22.8295565,11.9367812 L22.8295565,10.2441738 C22.8295565,9.50631812 23.41822,8.90806594 24.1442495,8.90806594 C24.225999,8.90806594 24.3067434,8.91215198 24.3868177,8.91862135 C24.4307079,9.02519669 24.4551657,9.14198696 24.4551657,9.26456566 Z" id="Path" fill="#FFEEE6"></path>
                    <path d="M28.8378107,21.3794264 C28.8378107,20.8874092 29.2304763,20.4886879 29.7142726,20.4886879 L35.8501767,20.4886879 C35.8501767,21.1693402 35.4739279,21.7604419 34.9217836,22.0600787 C34.8453947,22.1016193 34.7981543,22.1823169 34.7981543,22.2701649 L29.7142726,22.2701649 C29.2304763,22.2701649 28.8378107,21.8714437 28.8378107,21.3794264 L28.8378107,21.3794264 Z M34.0969176,32.7819688 L24.7355933,32.7819688 C23.4162098,32.7819688 22.1326754,32.34375 21.080653,31.5347307 C20.0282956,30.7253707 18.7450962,30.2874925 17.4253776,30.2874925 L10.2555433,30.2874925 L10.2555433,33.138128 L17.4253776,33.138128 C18.7450962,33.138128 20.0282956,33.5760063 21.080653,34.3853662 C22.1326754,35.1943855 23.4162098,35.6322639 24.7355933,35.6322639 L34.0969176,35.6322639 C35.0651803,35.6322639 35.8501767,34.8348214 35.8501767,33.8507869 L35.8501767,32.9600484 C35.8501767,32.5981008 35.7419591,32.2627119 35.5593628,31.9821429 C35.2454313,32.4636048 34.7080287,32.7819688 34.0969176,32.7819688 Z M28.8378107,30.2874925 C28.8378107,30.7795097 29.2304763,31.178231 29.7142726,31.178231 L34.7981543,31.178231 C34.7981543,31.0903828 34.8453947,31.0096852 34.9217836,30.9681447 C35.4739279,30.6685079 35.8501767,30.0774062 35.8501767,29.396754 L29.7142726,29.396754 C29.2304763,29.396754 28.8378107,29.7954751 28.8378107,30.2874925 L28.8378107,30.2874925 Z M28.8378107,25.8334595 C28.8378107,26.3254767 29.2304763,26.724198 29.7142726,26.724198 L34.7981543,26.724198 C34.7981543,26.6363499 34.8453947,26.5556523 34.9217836,26.5141117 C35.4739279,26.2144749 35.8501767,25.6233732 35.8501767,24.942721 L29.7142726,24.942721 C29.2304763,24.942721 28.8378107,25.3414422 28.8378107,25.8334595 L28.8378107,25.8334595 Z" id="Shape" fill="#FFC9C0"></path>
                    <path d="M13.7613913,20.0433187 L13.7613913,34.6526559 C13.7613913,35.3905115 13.1727278,35.9887636 12.4466984,35.9887636 L8.06405334,35.9887636 C7.45964301,35.9887636 6.95172391,35.5733581 6.79794099,35.0088151 L3.66867694,35.0088151 C1.35255237,31.5251967 0,27.3255145 0,22.8047443 C0,21.746141 0.075718768,20.7052436 0.21911554,19.686819 L6.79794099,19.686819 C6.95172391,19.122276 7.45964301,18.7068705 8.06405334,18.7068705 L12.4466984,18.7068705 C13.1727278,18.7068705 13.7613913,19.3051226 13.7613913,20.0433187 Z" id="Path" fill="#FF393A"></path>
                    <path d="M0,22.8047443 C0,21.746141 0.0740435945,20.7052436 0.217440281,19.686819 L4.11963938,19.686819 L4.11963938,30.6164119 C4.11963938,31.3542676 3.5309759,31.9525197 2.80494639,31.9525197 L1.97170441,31.9525197 C0.705927166,29.1699833 0,26.0714664 0,22.8047443 Z M6.74936036,20.0433187 L6.74936036,31.6236002 C6.74936036,32.3617963 7.33802392,32.9600484 8.06405334,32.9600484 L12.4466984,32.9600484 C13.1727278,32.9600484 13.7613913,32.3617963 13.7613913,31.6236002 L13.7613913,20.0433187 C13.7613913,19.3051226 13.1727278,18.7068705 12.4466984,18.7068705 L8.06405334,18.7068705 C7.33802392,18.7068705 6.74936036,19.3051226 6.74936036,20.0433187 L6.74936036,20.0433187 Z" id="Shape" fill="#FF6466"></path>
                </g>
            </g>
        </g>
    </g>
</svg>