<?xml version="1.0" encoding="UTF-8"?>
<svg width="48px" height="48px" viewBox="0 0 48 48" version="1.1" xmlns="http://www.w3.org/2000/svg" xmlns:xlink="http://www.w3.org/1999/xlink">
    <title>0540036A-DD06-4BF8-9638-8CA33F2F707F@1x</title>
    <g id="1.-atoms" stroke="none" stroke-width="1" fill="none" fill-rule="evenodd">
        <g id="3.-icon-&amp;-illus" transform="translate(-558.000000, -652.000000)" fill-rule="nonzero">
            <g id="Group" transform="translate(550.000000, 644.000000)">
                <g id="dollar" transform="translate(8.000000, 8.000000)">
                    <path d="M24.09375,0 C10.9033125,0 0,10.715625 0,23.90625 C0,37.096875 10.9033125,48 24.09375,48 C37.2841875,48 48,37.096875 48,23.90625 C48,10.715625 37.2841875,0 24.09375,0 Z" id="Shape" fill="#FEDB41"></path>
                    <path d="M48,23.90625 C48,37.096875 37.2841875,48 24.09375,48 L24.09375,0 C37.2841875,0 48,10.715625 48,23.90625 Z" id="Shape" fill="#FFCC33"></path>
                    <path d="M24.09375,5.625 C14.0248125,5.625 5.625,13.8374062 5.625,23.90625 C5.625,33.9750937 14.0248125,42.375 24.09375,42.375 C34.1626875,42.375 42.375,33.9750937 42.375,23.90625 C42.375,13.8374062 34.1626875,5.625 24.09375,5.625 Z" id="Shape" fill="#FEA832"></path>
                    <path d="M42.375,23.90625 C42.375,33.9750938 34.1626875,42.375 24.09375,42.375 L24.09375,5.625 C34.1626875,5.625 42.375,13.8374063 42.375,23.90625 Z" id="Shape" fill="#FE9923"></path>
                    <path d="M26.90625,22.5 L25.5,22.5 L25.5,16.875 L26.90625,16.875 C27.6938437,16.875 28.3125,17.4936563 28.3125,18.28125 C28.3125,20.1374063 31.125,20.1374063 31.125,18.28125 C31.125,15.9467812 29.2408125,14.0625 26.90625,14.0625 L25.5,14.0625 L25.5,12.65625 C25.5,11.7280313 24.796875,11.25 24.09375,11.25 C23.390625,11.25 22.6875,11.7280313 22.6875,12.65625 L22.6875,14.0625 L21.09375,14.0625 C18.7591875,14.0625 16.875,15.9467812 16.875,18.28125 L16.875,21.09375 C16.875,23.4282187 18.7591875,25.3125 21.09375,25.3125 L22.6875,25.3125 L22.6875,31.125 L21.09375,31.125 C20.3061563,31.125 19.6875,30.5063438 19.6875,29.71875 C19.6875,27.8625938 16.875,27.8625938 16.875,29.71875 C16.875,32.0532187 18.7591875,33.9375 21.09375,33.9375 L22.6875,33.9375 L22.6875,35.34375 C22.6875,36.2719687 23.390625,36.75 24.09375,36.75 C24.796875,36.75 25.5,36.2719687 25.5,35.34375 L25.5,33.9375 L26.90625,33.9375 C29.2408125,33.9375 31.125,32.0532187 31.125,29.71875 L31.125,26.71875 C31.125,24.3842813 29.2408125,22.5 26.90625,22.5 Z M22.6875,22.5 L21.09375,22.5 C20.3061563,22.5 19.6875,21.8813437 19.6875,21.09375 L19.6875,18.28125 C19.6875,17.4936563 20.3061563,16.875 21.09375,16.875 L22.6875,16.875 L22.6875,22.5 Z M28.3125,29.71875 C28.3125,30.5063437 27.6938437,31.125 26.90625,31.125 L25.5,31.125 L25.5,25.3125 L26.90625,25.3125 C27.6938437,25.3125 28.3125,25.9311563 28.3125,26.71875 L28.3125,29.71875 Z" id="Shape" fill="#FEDB41"></path>
                    <path d="M26.90625,22.5 L25.5,22.5 L25.5,16.875 L26.90625,16.875 C27.6938437,16.875 28.3125,17.4936563 28.3125,18.28125 C28.3125,20.1374063 31.125,20.1374063 31.125,18.28125 C31.125,15.9467812 29.2408125,14.0625 26.90625,14.0625 L25.5,14.0625 L25.5,12.65625 C25.5,11.7280313 24.796875,11.25 24.09375,11.25 L24.09375,36.75 C24.796875,36.75 25.5,36.2719687 25.5,35.34375 L25.5,33.9375 L26.90625,33.9375 C29.2408125,33.9375 31.125,32.0532187 31.125,29.71875 L31.125,26.71875 C31.125,24.3842813 29.2408125,22.5 26.90625,22.5 Z M28.3125,29.71875 C28.3125,30.5063437 27.6938437,31.125 26.90625,31.125 L25.5,31.125 L25.5,25.3125 L26.90625,25.3125 C27.6938437,25.3125 28.3125,25.9311563 28.3125,26.71875 L28.3125,29.71875 Z" id="Shape" fill="#FFCC33"></path>
                </g>
            </g>
        </g>
    </g>
</svg>